<?xml version="1.0" encoding="utf-8"?>
<svg id="master-artboard" viewBox="0 0 1426.2017822265625 870.2152709960938" version="1.1" xmlns="http://www.w3.org/2000/svg" x="0px" y="0px" width="1426.2017822265625px" height="870.2152709960938px" enable-background="new 0 0 2340 1560"><defs><style id="ee-google-fonts">@import url(https://fonts.googleapis.com/css?family=Chau+Philomene+One:400,400italic|Audiowide:400|Hind+Madurai:300,400,500,600,700);</style></defs><rect id="ee-background" x="0" y="0" width="1426.2017822265625" height="870.2152709960938" style="fill: white; fill-opacity: 0; pointer-events: none;"/>
<metadata><!--?xpacket begin="﻿" id="W5M0MpCehiHzreSzNTczkc9d"?-->

                                                                                                    
                                                                                                    
                                                                                                    
                                                                                                    
                                                                                                    
                                                                                                    
                                                                                                    
                                                                                                    
                                                                                                    
                                                                                                    
                                                                                                    
                                                                                                    
                                                                                                    
                                                                                                    
                                                                                                    
                                                                                                    
                                                                                                    
                                                                                                    
                                                                                                    
                                                                                                    
                           
<!--?xpacket end="w"?-->
	</metadata>


<linearGradient id="SVGID_1_" gradientUnits="userSpaceOnUse" x1="1073.2007" y1="915.2539" x2="1349.9929" y2="544.183">
	<stop offset="0" style="stop-color:#942280"/>
	<stop offset="1" style="stop-color:#282B5C"/>
</linearGradient>
<path fill="url(#SVGID_1_)" d="M1353.653,777.586l-149.518-258.973c-15.913-24.085-35.041-77.944-62.826-28.104L969.527,788.045&#10;&#9;c-10.858,18.805,2.922,58.37,24.421,58.37l147.347-255.212l0,0c26.791-49.862,46.383,1.127,62.912,28.208l101.999,176.669h-20.335&#10;&#9;c-20.334,0-30.63-4.813-40.779-14.964l-48.03-48.028c-18.078-18.079-27.633-20.585-40.217-20.585h-16.088&#10;&#9;c-24.8,0-29.766,36.2-44.773,50.336h34.861c22.896,0,30.499,5.716,45.336,20.553l46.824,46.825&#10;&#9;c13.717,13.715,26.878,16.198,50.283,16.198h100.977C1374.266,825.99,1374.266,811.812,1353.653,777.586z" transform="matrix(1, 0, 0, 1, -454.6811218261719, -310.5140380859375)"/>
<path d="M 441.7825012207031 616 L 424.7724914550781 616 L 424.7724914550781 592.969970703125 L 364.9725036621094 592.969970703125 L 364.9725036621094 616 L 347.9524841308594 616 L 347.9524841308594 569.0900268554688 C 347.9524841308594 562.2366943359375 349.13250732421875 555.933349609375 351.49249267578125 550.1799926757812 C 353.8458251953125 544.4199829101562 357.1158447265625 539.469970703125 361.302490234375 535.3300170898438 C 365.4891662597656 531.183349609375 370.4391784667969 527.9533081054688 376.1524963378906 525.6400146484375 C 381.8658447265625 523.32666015625 388.1058349609375 522.1699829101562 394.87249755859375 522.1699829101562 L 433.2124938964844 522.1699829101562 C 434.3858337402344 522.1699829101562 435.4991760253906 522.3900146484375 436.552490234375 522.8300170898438 C 437.59918212890625 523.2633056640625 438.51251220703125 523.8733520507812 439.29248046875 524.6600341796875 C 440.07916259765625 525.4466552734375 440.6925048828125 526.3633422851562 441.13250732421875 527.4100341796875 C 441.5658264160156 528.4566650390625 441.7825012207031 529.5700073242188 441.7825012207031 530.75 L 441.7825012207031 616 M 364.9725036621094 575.9600219726562 L 424.7724914550781 575.9600219726562 L 424.7724914550781 539.1900024414062 L 394.87249755859375 539.1900024414062 C 394.3458251953125 539.1900024414062 393.24249267578125 539.2633056640625 391.5625 539.4100341796875 C 389.88250732421875 539.5633544921875 387.9425048828125 539.9466552734375 385.74249267578125 540.5599975585938 C 383.53582763671875 541.17333984375 381.2124938964844 542.1099853515625 378.7724914550781 543.3699951171875 C 376.3324890136719 544.6366577148438 374.0858154296875 546.38330078125 372.0325012207031 548.6099853515625 C 369.98583984375 550.8300170898438 368.29583740234375 553.6099853515625 366.9624938964844 556.9500122070312 C 365.6358337402344 560.2899780273438 364.9725036621094 564.336669921875 364.9725036621094 569.0900268554688 L 364.9725036621094 575.9600219726562 ZM 559.8707885742188 616 L 535.7307739257812 616 L 497.4507751464844 577.6599731445312 L 485.48077392578125 577.6599731445312 L 485.48077392578125 560.52001953125 L 497.4507751464844 560.52001953125 L 535.7307739257812 522.1699829101562 L 559.8707885742188 522.1699829101562 L 511.6507873535156 569.0900268554688 L 559.8707885742188 616 M 478.6707763671875 616 L 461.6607971191406 616 L 461.6607971191406 522.1699829101562 L 478.6707763671875 522.1699829101562 L 478.6707763671875 616 ZM 662.5858764648438 616 L 645.5758666992188 616 L 645.5758666992188 592.969970703125 L 585.77587890625 592.969970703125 L 585.77587890625 616 L 568.755859375 616 L 568.755859375 569.0900268554688 C 568.755859375 562.2366943359375 569.9358520507812 555.933349609375 572.2958984375 550.1799926757812 C 574.6492309570312 544.4199829101562 577.919189453125 539.469970703125 582.1058959960938 535.3300170898438 C 586.2925415039062 531.183349609375 591.2425537109375 527.9533081054688 596.9558715820312 525.6400146484375 C 602.669189453125 523.32666015625 608.9091796875 522.1699829101562 615.6759033203125 522.1699829101562 L 654.015869140625 522.1699829101562 C 655.189208984375 522.1699829101562 656.3025512695312 522.3900146484375 657.3558959960938 522.8300170898438 C 658.4025268554688 523.2633056640625 659.3158569335938 523.8733520507812 660.0958862304688 524.6600341796875 C 660.882568359375 525.4466552734375 661.495849609375 526.3633422851562 661.9358520507812 527.4100341796875 C 662.3692016601562 528.4566650390625 662.5858764648438 529.5700073242188 662.5858764648438 530.75 L 662.5858764648438 616 M 585.77587890625 575.9600219726562 L 645.5758666992188 575.9600219726562 L 645.5758666992188 539.1900024414062 L 615.6759033203125 539.1900024414062 C 615.1492309570312 539.1900024414062 614.0458984375 539.2633056640625 612.3658447265625 539.4100341796875 C 610.6858520507812 539.5633544921875 608.745849609375 539.9466552734375 606.5458984375 540.5599975585938 C 604.3392333984375 541.17333984375 602.015869140625 542.1099853515625 599.5758666992188 543.3699951171875 C 597.1358642578125 544.6366577148438 594.8892211914062 546.38330078125 592.8358764648438 548.6099853515625 C 590.7891845703125 550.8300170898438 589.0991821289062 553.6099853515625 587.765869140625 556.9500122070312 C 586.439208984375 560.2899780273438 585.77587890625 564.336669921875 585.77587890625 569.0900268554688 L 585.77587890625 575.9600219726562 ZM 775.9641723632812 576.739990234375 C 775.9641723632812 582.4533081054688 774.9708251953125 587.7100219726562 772.984130859375 592.510009765625 C 771.004150390625 597.3099975585938 768.2675170898438 601.443359375 764.774169921875 604.9099731445312 C 761.2874755859375 608.3766479492188 757.1441650390625 611.0933227539062 752.3441772460938 613.0599975585938 C 747.544189453125 615.02001953125 742.330810546875 616 736.7041625976562 616 L 690.774169921875 616 C 689.5541381835938 616 688.4208374023438 615.7833251953125 687.3741455078125 615.3499755859375 C 686.3275146484375 614.9099731445312 685.4208374023438 614.3099975585938 684.6541748046875 613.5499877929688 C 683.8941650390625 612.7833251953125 683.294189453125 611.8766479492188 682.8541870117188 610.8300170898438 C 682.4208374023438 609.7833251953125 682.2041625976562 608.6500244140625 682.2041625976562 607.4299926757812 L 682.2041625976562 530.75 C 682.2041625976562 529.5700073242188 682.4208374023438 528.4566650390625 682.8541870117188 527.4100341796875 C 683.294189453125 526.3633422851562 683.8941650390625 525.4466552734375 684.6541748046875 524.6600341796875 C 685.4208374023438 523.8733520507812 686.3275146484375 523.2633056640625 687.3741455078125 522.8300170898438 C 688.4208374023438 522.3900146484375 689.5541381835938 522.1699829101562 690.774169921875 522.1699829101562 L 736.7041625976562 522.1699829101562 C 742.330810546875 522.1699829101562 747.544189453125 523.1533203125 752.3441772460938 525.1199951171875 C 757.1441650390625 527.0800170898438 761.2874755859375 529.7933349609375 764.774169921875 533.260009765625 C 768.2675170898438 536.7333374023438 771.004150390625 540.8800048828125 772.984130859375 545.7000122070312 C 774.9708251953125 550.52001953125 775.9641723632812 555.7633056640625 775.9641723632812 561.4299926757812 L 775.9641723632812 576.739990234375 M 758.9541625976562 561.4299926757812 C 758.9541625976562 558.1166381835938 758.4208374023438 555.086669921875 757.3541870117188 552.3400268554688 C 756.2808227539062 549.586669921875 754.76416015625 547.239990234375 752.8041381835938 545.2999877929688 C 750.8375244140625 543.3599853515625 748.4908447265625 541.856689453125 745.76416015625 540.7899780273438 C 743.0374755859375 539.7233276367188 740.0175170898438 539.1900024414062 736.7041625976562 539.1900024414062 L 699.2141723632812 539.1900024414062 L 699.2141723632812 598.989990234375 L 736.7041625976562 598.989990234375 C 740.0175170898438 598.989990234375 743.0374755859375 598.4566650390625 745.76416015625 597.3900146484375 C 748.4908447265625 596.316650390625 750.8375244140625 594.8099975585938 752.8041381835938 592.8699951171875 C 754.76416015625 590.9299926757812 756.2808227539062 588.5966796875 757.3541870117188 585.8699951171875 C 758.4208374023438 583.143310546875 758.9541625976562 580.0999755859375 758.9541625976562 576.739990234375 L 758.9541625976562 561.4299926757812 ZM 869.7777099609375 577.6599731445312 L 816.0576782226562 577.6599731445312 L 816.0576782226562 560.52001953125 L 869.7777099609375 560.52001953125 L 869.7777099609375 577.6599731445312 M 877.4376831054688 616 L 816.0576782226562 616 C 813.704345703125 616 811.1310424804688 615.586669921875 808.3377075195312 614.760009765625 C 805.551025390625 613.9266967773438 802.9677124023438 612.5633544921875 800.5877075195312 610.6699829101562 C 798.2077026367188 608.77001953125 796.224365234375 606.3033447265625 794.6376953125 603.27001953125 C 793.0443725585938 600.2433471679688 792.2476806640625 596.5266723632812 792.2476806640625 592.1199951171875 L 792.2476806640625 530.75 C 792.2476806640625 529.5700073242188 792.46435546875 528.4566650390625 792.897705078125 527.4100341796875 C 793.3377075195312 526.3633422851562 793.9376831054688 525.4466552734375 794.6976928710938 524.6600341796875 C 795.46435546875 523.8733520507812 796.3710327148438 523.2633056640625 797.4176635742188 522.8300170898438 C 798.46435546875 522.3900146484375 799.5977172851562 522.1699829101562 800.8176879882812 522.1699829101562 L 877.4376831054688 522.1699829101562 L 877.4376831054688 539.1900024414062 L 809.2576904296875 539.1900024414062 L 809.2576904296875 592.1199951171875 C 809.2576904296875 594.3466796875 809.8477172851562 596.0466918945312 811.0277099609375 597.219970703125 C 812.2010498046875 598.4000244140625 813.9210205078125 598.989990234375 816.1876831054688 598.989990234375 L 877.4376831054688 598.989990234375 L 877.4376831054688 616 ZM 1003.0474243164062 616 L 985.9074096679688 616 L 985.9074096679688 560.1199951171875 L 955.7474365234375 613.1900024414062 C 955.000732421875 614.5366821289062 953.9640502929688 615.5599975585938 952.6373901367188 616.260009765625 C 951.3040771484375 616.9600219726562 949.8740844726562 617.3099975585938 948.347412109375 617.3099975585938 C 946.867431640625 617.3099975585938 945.4840698242188 616.9600219726562 944.1973876953125 616.260009765625 C 942.9107666015625 615.5599975585938 941.8973999023438 614.5366821289062 941.1574096679688 613.1900024414062 L 910.857421875 560.1199951171875 L 910.857421875 616 L 893.847412109375 616 L 893.847412109375 529.4400024414062 C 893.847412109375 527.4733276367188 894.424072265625 525.7266845703125 895.577392578125 524.2000122070312 C 896.7374267578125 522.67333984375 898.2540893554688 521.6500244140625 900.1273803710938 521.1300048828125 C 901.0474243164062 520.9100341796875 901.9640502929688 520.8333129882812 902.8773803710938 520.9000244140625 C 903.790771484375 520.9666748046875 904.674072265625 521.163330078125 905.5274047851562 521.489990234375 C 906.3740844726562 521.816650390625 907.1473999023438 522.2733154296875 907.847412109375 522.8599853515625 C 908.5474243164062 523.4466552734375 909.1373901367188 524.1566772460938 909.617431640625 524.989990234375 L 948.347412109375 592.3099975585938 L 987.08740234375 524.989990234375 C 988.08740234375 523.3300170898438 989.4707641601562 522.1500244140625 991.2374267578125 521.4500122070312 C 993.0040893554688 520.7566528320312 994.847412109375 520.6500244140625 996.7673950195312 521.1300048828125 C 998.6007080078125 521.6500244140625 1000.107421875 522.67333984375 1001.2874145507812 524.2000122070312 C 1002.4607543945312 525.7266845703125 1003.0474243164062 527.4733276367188 1003.0474243164062 529.4400024414062 L 1003.0474243164062 616 ZM 1039.9366455078125 616 L 1022.9266357421875 616 L 1022.9266357421875 522.1699829101562 L 1039.9366455078125 522.1699829101562 L 1039.9366455078125 616 M 1040.006591796875 507.05999755859375 C 1040.006591796875 508.239990234375 1039.776611328125 509.3399963378906 1039.316650390625 510.3599853515625 C 1038.8565673828125 511.38665771484375 1038.24658203125 512.2833251953125 1037.486572265625 513.0499877929688 C 1036.719970703125 513.8099975585938 1035.82666015625 514.4100341796875 1034.806640625 514.8499755859375 C 1033.7799072265625 515.2833251953125 1032.699951171875 515.5 1031.566650390625 515.5 C 1030.3865966796875 515.5 1029.2833251953125 515.2833251953125 1028.256591796875 514.8499755859375 C 1027.236572265625 514.4100341796875 1026.34326171875 513.8099975585938 1025.57666015625 513.0499877929688 C 1024.816650390625 512.2833251953125 1024.2166748046875 511.38665771484375 1023.776611328125 510.3599853515625 C 1023.34326171875 509.3399963378906 1023.1266479492188 508.239990234375 1023.1266479492188 507.05999755859375 C 1023.1266479492188 505.9266662597656 1023.34326171875 504.8466796875 1023.776611328125 503.82000732421875 C 1024.2166748046875 502.7933349609375 1024.816650390625 501.8999938964844 1025.57666015625 501.1400146484375 C 1026.34326171875 500.37335205078125 1027.236572265625 499.7633361816406 1028.256591796875 499.30999755859375 C 1029.2833251953125 498.8500061035156 1030.3865966796875 498.6199951171875 1031.566650390625 498.6199951171875 C 1032.699951171875 498.6199951171875 1033.7799072265625 498.8500061035156 1034.806640625 499.30999755859375 C 1035.82666015625 499.7633361816406 1036.719970703125 500.37335205078125 1037.486572265625 501.1400146484375 C 1038.24658203125 501.8999938964844 1038.8565673828125 502.7933349609375 1039.316650390625 503.82000732421875 C 1039.776611328125 504.8466796875 1040.006591796875 505.9266662597656 1040.006591796875 507.05999755859375 ZM 1153.5860595703125 608.739990234375 C 1153.5860595703125 609.9600219726562 1153.3560791015625 611.0933227539062 1152.89599609375 612.1400146484375 C 1152.4427490234375 613.1866455078125 1151.832763671875 614.0900268554688 1151.0660400390625 614.8499755859375 C 1150.3060302734375 615.6166381835938 1149.4027099609375 616.2166748046875 1148.3560791015625 616.6500244140625 C 1147.309326171875 617.0900268554688 1146.196044921875 617.3099975585938 1145.0159912109375 617.3099975585938 C 1143.9693603515625 617.3099975585938 1142.9127197265625 617.1133422851562 1141.8460693359375 616.719970703125 C 1140.772705078125 616.32666015625 1139.82275390625 615.693359375 1138.99609375 614.8200073242188 L 1076.8360595703125 549.9199829101562 L 1076.8360595703125 616 L 1059.8260498046875 616 L 1059.8260498046875 529.4400024414062 C 1059.8260498046875 527.693359375 1060.3160400390625 526.1099853515625 1061.2960205078125 524.6900024414062 C 1062.2760009765625 523.2766723632812 1063.5294189453125 522.219970703125 1065.0560302734375 521.52001953125 C 1066.676025390625 520.86669921875 1068.3360595703125 520.7033081054688 1070.0360107421875 521.030029296875 C 1071.736083984375 521.356689453125 1073.196044921875 522.1533203125 1074.416015625 523.4199829101562 L 1136.5760498046875 588.260009765625 L 1136.5760498046875 522.1699829101562 L 1153.5860595703125 522.1699829101562 L 1153.5860595703125 608.739990234375 ZM 1262.7154541015625 553.5800170898438 C 1262.7154541015625 557.4600219726562 1262.22216796875 560.9266357421875 1261.2354736328125 563.97998046875 C 1260.2554931640625 567.0333251953125 1258.958740234375 569.7266845703125 1257.345458984375 572.0599975585938 C 1255.7320556640625 574.393310546875 1253.845458984375 576.3900146484375 1251.6854248046875 578.0499877929688 C 1249.525390625 579.7100219726562 1247.2921142578125 581.0733642578125 1244.9854736328125 582.1400146484375 C 1242.672119140625 583.2066650390625 1240.325439453125 583.97998046875 1237.9454345703125 584.4600219726562 C 1235.5721435546875 584.9400024414062 1233.3387451171875 585.1799926757812 1231.2454833984375 585.1799926757812 L 1224.37548828125 585.1799926757812 L 1224.37548828125 616 L 1207.2254638671875 616 L 1207.2254638671875 585.1799926757812 L 1200.4254150390625 585.1799926757812 C 1198.3321533203125 585.1799926757812 1196.095458984375 584.9400024414062 1193.7154541015625 584.4600219726562 C 1191.3421630859375 583.97998046875 1188.9854736328125 583.2066650390625 1186.6453857421875 582.1400146484375 C 1184.3121337890625 581.0733642578125 1182.0787353515625 579.7100219726562 1179.9454345703125 578.0499877929688 C 1177.805419921875 576.3900146484375 1175.9188232421875 574.393310546875 1174.285400390625 572.0599975585938 C 1172.652099609375 569.7266845703125 1171.3421630859375 567.0233154296875 1170.35546875 563.9500122070312 C 1169.37548828125 560.8766479492188 1168.885498046875 557.4199829101562 1168.885498046875 553.5800170898438 L 1168.885498046875 522.1699829101562 L 1185.8953857421875 522.1699829101562 L 1185.8953857421875 553.5800170898438 C 1185.8953857421875 555.806640625 1186.2454833984375 557.8033447265625 1186.9454345703125 559.5700073242188 C 1187.6453857421875 561.336669921875 1188.62548828125 562.8499755859375 1189.885498046875 564.1099853515625 C 1191.152099609375 565.3766479492188 1192.692138671875 566.3499755859375 1194.5054931640625 567.030029296875 C 1196.3121337890625 567.7033081054688 1198.3287353515625 568.0399780273438 1200.555419921875 568.0399780273438 L 1231.2454833984375 568.0399780273438 C 1232.8587646484375 567.780029296875 1234.515380859375 567.443359375 1236.2154541015625 567.030029296875 C 1237.9154052734375 566.6099853515625 1239.462158203125 565.9000244140625 1240.85546875 564.9000244140625 C 1242.2554931640625 563.893310546875 1243.412109375 562.4966430664062 1244.325439453125 560.7100219726562 C 1245.2454833984375 558.92333984375 1245.7054443359375 556.5466918945312 1245.7054443359375 553.5800170898438 L 1245.7054443359375 522.1699829101562 L 1262.7154541015625 522.1699829101562 L 1262.7154541015625 553.5800170898438 ZM 1369.614501953125 616 L 1352.6046142578125 616 L 1352.6046142578125 592.969970703125 L 1292.8045654296875 592.969970703125 L 1292.8045654296875 616 L 1275.7845458984375 616 L 1275.7845458984375 569.0900268554688 C 1275.7845458984375 562.2366943359375 1276.964599609375 555.933349609375 1279.3245849609375 550.1799926757812 C 1281.6778564453125 544.4199829101562 1284.9478759765625 539.469970703125 1289.134521484375 535.3300170898438 C 1293.3212890625 531.183349609375 1298.271240234375 527.9533081054688 1303.984619140625 525.6400146484375 C 1309.6978759765625 523.32666015625 1315.9378662109375 522.1699829101562 1322.70458984375 522.1699829101562 L 1361.0445556640625 522.1699829101562 C 1362.2178955078125 522.1699829101562 1363.3311767578125 522.3900146484375 1364.384521484375 522.8300170898438 C 1365.4312744140625 523.2633056640625 1366.3446044921875 523.8733520507812 1367.12451171875 524.6600341796875 C 1367.9112548828125 525.4466552734375 1368.5245361328125 526.3633422851562 1368.964599609375 527.4100341796875 C 1369.39794921875 528.4566650390625 1369.614501953125 529.5700073242188 1369.614501953125 530.75 L 1369.614501953125 616 M 1292.8045654296875 575.9600219726562 L 1352.6046142578125 575.9600219726562 L 1352.6046142578125 539.1900024414062 L 1322.70458984375 539.1900024414062 C 1322.1778564453125 539.1900024414062 1321.0745849609375 539.2633056640625 1319.39453125 539.4100341796875 C 1317.714599609375 539.5633544921875 1315.7745361328125 539.9466552734375 1313.5745849609375 540.5599975585938 C 1311.367919921875 541.17333984375 1309.0445556640625 542.1099853515625 1306.6046142578125 543.3699951171875 C 1304.16455078125 544.6366577148438 1301.9178466796875 546.38330078125 1299.864501953125 548.6099853515625 C 1297.81787109375 550.8300170898438 1296.1279296875 553.6099853515625 1294.7945556640625 556.9500122070312 C 1293.4678955078125 560.2899780273438 1292.8045654296875 564.336669921875 1292.8045654296875 569.0900268554688 L 1292.8045654296875 575.9600219726562 Z" transform="matrix(1, 0, 0, 1, -155.25689697265625, 113.11578369140625)" style="fill: rgb(62, 42, 99); white-space: pre; color: rgb(51, 51, 51);"/></svg>